PathFileType	4	(X/Y/Z)	/Users/itak/Documents/Research/Walk-IL/dataset/trc/00379_00012.trc
DataRate	CameraRate	NumFrames	NumMarkers	Units	OrigDataRate	OrigDataStartFrame	OrigNumFrames
100.000000	100.000000	4	56	mm	100.000000	177	354
Frame#	Time	RPSI			LPSI			L3			STRN			T10			C7			CLAV			RBAK			LBAK			LSHO			LUPA			LAEL			LAOL			LWTS			LWPS			LFRA			LIFD			LHPS			LHTS			RSHO			RUPA			RAEL			RAOL			RWTS			RWPS			RFRA			RIFD			RBHD			LFHD			RFHD			LBHD			LHIP			RASI			LASI			LKNE			LTHI			LANK			LTIP			LTOE			LMT1			LMT5			LHEE			RKNE			RTHI			RANK			RTIP			RTOE			RMT1			RMT5			RHEE			RHTS			RHPS			RHIP			*53			*54			*55			
		X1	Y1	Z1	X2	Y2	Z2	X3	Y3	Z3	X4	Y4	Z4	X5	Y5	Z5	X6	Y6	Z6	X7	Y7	Z7	X8	Y8	Z8	X9	Y9	Z9	X10	Y10	Z10	X11	Y11	Z11	X12	Y12	Z12	X13	Y13	Z13	X14	Y14	Z14	X15	Y15	Z15	X16	Y16	Z16	X17	Y17	Z17	X18	Y18	Z18	X19	Y19	Z19	X20	Y20	Z20	X21	Y21	Z21	X22	Y22	Z22	X23	Y23	Z23	X24	Y24	Z24	X25	Y25	Z25	X26	Y26	Z26	X27	Y27	Z27	X28	Y28	Z28	X29	Y29	Z29	X30	Y30	Z30	X31	Y31	Z31	X32	Y32	Z32	X33	Y33	Z33	X34	Y34	Z34	X35	Y35	Z35	X36	Y36	Z36	X37	Y37	Z37	X38	Y38	Z38	X39	Y39	Z39	X40	Y40	Z40	X41	Y41	Z41	X42	Y42	Z42	X43	Y43	Z43	X44	Y44	Z44	X45	Y45	Z45	X46	Y46	Z46	X47	Y47	Z47	X48	Y48	Z48	X49	Y49	Z49	X50	Y50	Z50	X51	Y51	Z51	X52	Y52	Z52	X53	Y53	Z53	X54	Y54	Z54	X55	Y55	Z55	X56	Y56	Z56	

178	1.77	40.14635848999023	940.154052734375	179.7910614013672	48.09345245361328	918.5953979492188	48.40955352783203	39.03641510009766	1012.290100097656	124.75341796875	278.0736389160156	1168.073120117188	136.1759185791016	25.52173042297363	1114.953002929688	129.9498901367188	65.33464813232422	1361.402099609375	128.0162963867188	220.0249633789062	1285.093994140625	130.4697875976562	24.79938507080078	1218.591918945312	198.2926483154297	42.60948944091797	1320.112060546875	31.7173023223877	122.7279052734375	1331.403564453125	-27.69919013977051	58.92160034179688	1222.677124023438	-76.91510009765625	5.703713893890381	1034.428344726562	-81.33731079101562	-18.59870910644531	1026.5263671875	0.8429111838340759	31.664306640625	797.460205078125	-55.68105316162109	-40.56394577026367	806.1307373046875	-93.75308990478516	-17.90255928039551	931.7084350585938	-87.81076812744141	-38.82469177246094	633.03759765625	-37.67248153686523	-55.79098510742188	721.3561401367188	-82.15711975097656	-4.952494144439697	693.2037963867188	-62.79628372192383	124.9751968383789	1348.969482421875	284.2689819335938	114.9574890136719	1284.355346679688	347.1824340820312	157.9160003662109	1027.85107421875	405.1483459472656	143.2794036865234	1004.009887695312	312.5503234863281	383.91357421875	938.4819946289062	386.7522277832031	357.5167541503906	903.0936279296875	446.3840637207031	209.8023986816406	985.7825927734375	422.6301879882812	503.4412231445312	818.6607666015625	396.5193176269531	105.2645797729492	1551.583862304688	198.1974182128906	237.8615264892578	1550.498291015625	49.5213623046875	234.6264495849609	1564.272216796875	171.5631713867188	90.37088012695312	1531.010375976562	37.2452278137207	151.4203643798828	910.705810546875	-51.58961868286133	246.3590545654297	927.8140258789062	272.0758972167969	257.896484375	918.1165161132812	8.072071075439453	380.0826721191406	468.7513427734375	-13.45384216308594	307.7419738769531	589.494873046875	-33.02614974975586	514.6948852539062	35.35037994384766	29.99647903442383	445.2644958496094	242.9417572021484	-6.037789344787598	695.7156372070312	134.9342041015625	99.35039520263672	625.3963012695312	103.1322402954102	127.2868423461914	632.7286987304688	81.22807312011719	23.64339828491211	476.0749816894531	26.09830093383789	84.38286590576172	55.49308013916016	445.7665405273438	263.1566772460938	150.1060791015625	694.041015625	308.788818359375	-116.0182952880859	58.95015716552734	199.2712860107422	28.70640754699707	320.2403564453125	235.9957275390625	54.61835098266602	33.38717269897461	121.5676193237305	-23.77241516113281	41.60244369506836	99.42228698730469	-33.7662467956543	41.80171966552734	199.2091217041016	-195.0208282470703	63.87112426757812	151.0167541503906	468.8917541503906	880.2814331054688	416.1540222167969	424.3616333007812	844.3086547851562	454.08837890625	107.2054061889648	923.990234375	304.9731750488281	nan	nan	nan	nan	nan	nan	nan	nan	nan	
179	1.78	53.22428131103516	938.0581665039062	178.3928833007812	61.79660797119141	916.8421020507812	47.06307220458984	52.22461700439453	1010.449523925781	123.6238632202148	290.6267395019531	1166.133544921875	135.9983825683594	38.93135070800781	1112.703491210938	129.6617279052734	77.43812561035156	1359.15283203125	127.7513046264648	232.4375305175781	1283.047729492188	130.2278289794922	37.59624862670898	1216.18359375	197.9046783447266	54.77452087402344	1317.556274414062	31.53568458557129	134.7963409423828	1329.076538085938	-27.96924018859863	71.33055114746094	1219.958984375	-77.00723266601562	18.81047439575195	1031.640747070312	-81.6226806640625	-5.165298938751221	1023.357543945312	0.6214948296546936	43.79542922973633	794.4347534179688	-55.68826293945312	-28.12603378295898	803.7698364257812	-94.16515350341797	-4.919628620147705	929.1394653320312	-88.13055419921875	-28.57860374450684	630.7813110351562	-38.06137847900391	-44.23314666748047	719.237060546875	-82.66944122314453	6.99586820602417	691.0116577148438	-63.3620719909668	137.2206420898438	1346.833984375	284.0448303222656	127.2932968139648	1282.030395507812	346.8704223632812	170.1962280273438	1025.312866210938	403.9892883300781	155.7743072509766	1001.782958984375	311.168701171875	396.2993774414062	936.2279052734375	386.0231323242188	369.7584228515625	900.7058715820312	445.4787292480469	222.0537872314453	983.2378540039062	421.4646606445312	515.9653930664062	816.5269165039062	395.893310546875	117.216194152832	1549.58203125	197.8047180175781	249.7952575683594	1548.561279296875	49.09347152709961	246.5513916015625	1562.37890625	171.1460571289062	102.3005294799805	1528.927001953125	36.86677169799805	165.5966949462891	909.41943359375	-52.24045562744141	259.0115356445312	925.5077514648438	272.153076171875	271.799072265625	916.6801147460938	7.994030952453613	393.8815002441406	467.3617248535156	-12.48613357543945	321.8773498535156	588.19775390625	-32.49523162841797	525.3324584960938	33.54501342773438	32.21170425415039	457.8173828125	241.1210479736328	-4.135841369628906	706.2880249023438	132.3354797363281	102.5710983276367	635.7507934570312	100.6581039428711	130.2156677246094	643.5396728515625	78.70351409912109	26.61584854125977	486.2352905273438	24.64080429077148	86.3634033203125	64.63673400878906	444.5653686523438	261.700439453125	161.0379943847656	691.9237060546875	307.6906127929688	-115.0850524902344	60.87065505981445	199.3085327148438	35.64823150634766	319.4195251464844	235.0258941650391	54.79919052124023	33.24025344848633	121.5909576416016	-23.19311904907227	42.29540252685547	99.57805633544922	-33.24797821044922	42.04525756835938	199.3000030517578	-193.9992370605469	67.66761779785156	150.8997650146484	481.274169921875	878.0924682617188	415.5553894042969	436.7798461914062	841.998046875	453.3199768066406	119.4561386108398	921.4916381835938	303.8450622558594	nan	nan	nan	nan	nan	nan	nan	nan	nan	
180	1.79	66.72135162353516	936.2655639648438	177.1507873535156	75.75318145751953	915.5396728515625	45.81122970581055	65.82218170166016	1008.797424316406	122.6285858154297	303.3731994628906	1164.552368164062	135.7462005615234	52.55195617675781	1110.618896484375	129.4012756347656	89.60239410400391	1357.13671875	127.4174041748047	244.9704284667969	1281.324462890625	129.9442901611328	50.50712203979492	1213.995971679688	197.4869842529297	67.08328247070312	1315.264770507812	31.24668121337891	147.0468902587891	1327.059326171875	-28.3011474609375	84.03894805908203	1217.521484375	-77.23865509033203	32.33977508544922	1029.091552734375	-82.06940460205078	8.525465965270996	1020.474914550781	0.2005365788936615	56.67370986938477	791.6887817382812	-55.77983856201172	-14.87684440612793	801.5717163085938	-94.80879211425781	8.652342796325684	926.7393798828125	-88.65704345703125	-17.40168571472168	628.72607421875	-38.56160736083984	-31.75386619567871	717.2387084960938	-83.40234375	19.82730102539062	689.0071411132812	-64.00156402587891	149.5069885253906	1344.950805664062	283.7552795410156	139.6612091064453	1279.9755859375	346.4890747070312	182.3731842041016	1023.047302246094	402.7801513671875	168.1154327392578	999.8663940429688	309.7279052734375	408.3729553222656	933.6007080078125	385.224365234375	381.5782775878906	898.0272827148438	444.5333557128906	234.1347808837891	980.8413696289062	420.2552185058594	527.7855224609375	813.619384765625	395.1810607910156	129.1521759033203	1547.846435546875	197.3963623046875	261.7633361816406	1546.892944335938	48.67109680175781	258.4899597167969	1560.742309570312	170.7369689941406	114.2523880004883	1527.131225585938	36.46930313110352	179.8910064697266	908.6534423828125	-52.92861938476562	272.1759338378906	923.3855590820312	272.0886840820312	285.9003601074219	915.71875	7.784119129180908	408.0346984863281	466.4537048339844	-11.14747714996338	336.2598571777344	587.2617797851562	-31.75474739074707	533.1743774414062	31.73615455627441	33.97633743286133	469.5225524902344	239.3407135009766	-2.175006628036499	715.087158203125	127.0853500366211	105.737548828125	644.006103515625	96.25791168212891	132.9652557373047	651.9677124023438	74.75156402587891	29.34174537658691	493.527587890625	23.40915679931641	87.87276458740234	74.44296264648438	443.5098876953125	260.1808776855469	172.6825103759766	689.8997192382812	306.4307556152344	-113.9123687744141	63.18911361694336	199.4885864257812	43.0182991027832	318.8138122558594	234.1029815673828	54.96461486816406	33.13059997558594	121.6125869750977	-22.49594879150391	43.18523406982422	99.78208160400391	-32.59900665283203	42.29916000366211	199.4761047363281	-192.6748809814453	72.15492248535156	150.9424133300781	493.1745300292969	875.2445678710938	414.8715515136719	448.5875854492188	839.1781616210938	452.4762878417969	132.2997741699219	919.1406860351562	302.7802734375	nan	nan	nan	nan	nan	nan	nan	nan	nan	
181	1.8	80.65366363525391	934.8131713867188	176.0685119628906	89.97892761230469	914.7030639648438	44.6489372253418	79.8602294921875	1007.332702636719	121.7761993408203	316.321533203125	1163.354614257812	135.4339294433594	66.30870819091797	1108.72509765625	129.151611328125	101.8324279785156	1355.377685546875	127.0162506103516	257.6271057128906	1279.95361328125	129.6271057128906	63.51674652099609	1212.033447265625	197.0233001708984	79.54097747802734	1313.263671875	30.84707260131836	159.4902648925781	1325.381225585938	-28.69340133666992	97.04185485839844	1215.405029296875	-77.60593414306641	46.2553596496582	1026.828002929688	-82.65837097167969	22.48421669006348	1017.914123535156	-0.3944445252418518	70.34406280517578	789.3014526367188	-56.02605056762695	-0.8298293948173523	799.5677490234375	-95.67851257324219	22.79089546203613	924.5617065429688	-89.394775390625	-5.216217994689941	626.885009765625	-39.17901992797852	-18.33302688598633	715.3792114257812	-84.34683227539062	33.5297737121582	687.1879272460938	-64.70327758789062	161.8231048583984	1343.330078125	283.4057006835938	152.0371398925781	1278.197631835938	346.0336303710938	194.4432220458984	1021.065979003906	401.5384521484375	180.3257598876953	998.2620239257812	308.255859375	420.1371154785156	930.616455078125	384.3608093261719	392.986083984375	895.0834350585938	443.5600280761719	246.0501403808594	978.6058349609375	419.0227966308594	538.8917236328125	809.952880859375	394.3837890625	141.0682678222656	1546.411376953125	196.9740753173828	273.7637939453125	1545.51513671875	48.26152038574219	270.4363708496094	1559.39111328125	170.3418121337891	126.2312774658203	1525.644775390625	36.05143356323242	194.3234558105469	908.4036254882812	-53.70954513549805	285.8653259277344	921.47705078125	271.8627319335938	300.1978454589844	915.2178344726562	7.421364784240723	422.4632568359375	465.9854431152344	-9.556838035583496	350.8372192382812	586.689697265625	-30.91470527648926	538.7609252929688	30.17207527160645	35.3555793762207	480.5830688476562	237.6983337402344	-0.1786324083805084	722.5242309570312	119.5987319946289	108.9269866943359	650.5782470703125	90.34806060791016	135.6064910888672	658.4992065429688	69.6971435546875	31.91977882385254	498.5328979492188	22.65699577331543	88.98978424072266	84.90790557861328	442.6257019042969	258.6767578125	185.0159606933594	688.0029907226562	305.0603332519531	-112.4599227905273	65.91485595703125	199.8318328857422	50.8125	318.4469299316406	233.3049621582031	55.11183547973633	33.06066131591797	121.6431274414062	-21.66047477722168	44.29204177856445	100.0414428710938	-31.79863357543945	42.54998779296875	199.7471008300781	-190.9723663330078	77.36825561523438	151.1639862060547	504.5877990722656	871.75048828125	414.0989379882812	459.7635803222656	835.8701171875	451.5593566894531	145.7541046142578	916.9934692382812	301.7882385253906	nan	nan	nan	nan	nan	nan	nan	nan	nan	
